<svg width="20" height="20" viewBox="0 0 20 20" fill="none" xmlns="http://www.w3.org/2000/svg">
<path d="M18.3334 9.99967C18.3334 5.3973 14.6025 1.66634 10.0001 1.66634C5.39771 1.66634 1.66675 5.3973 1.66675 9.99967C1.66675 14.602 5.39771 18.333 10.0001 18.333C14.6025 18.333 18.3334 14.602 18.3334 9.99967Z" stroke="#CCD2CC" stroke-width="1.25"/>
<path d="M16.6668 4.74899C15.8879 4.80513 14.8902 5.1067 14.1984 6.00215C12.9489 7.61951 11.6993 7.75447 10.8663 7.21535C9.61679 6.40667 10.6668 5.09681 9.20027 4.38496C8.24444 3.92102 8.11117 2.65855 8.64315 1.6665" stroke="#CCD2CC" stroke-width="1.25" stroke-linejoin="round"/>
<path d="M1.66675 9.1665C2.30216 9.71827 3.19213 10.2233 4.2407 10.2233C6.40711 10.2233 6.84039 10.6373 6.84039 12.293C6.84039 13.9487 6.84039 13.9487 7.27367 15.1905C7.5555 15.9983 7.65402 16.806 7.09225 17.4998" stroke="#CCD2CC" stroke-width="1.25" stroke-linejoin="round"/>
<path d="M18.3334 11.21C17.5942 10.7839 16.6667 10.6087 15.7279 11.2834C13.9315 12.5745 12.6929 11.5047 12.135 12.5738C11.3138 14.1476 14.2465 14.6423 11.6667 18.333" stroke="#CCD2CC" stroke-width="1.25" stroke-linejoin="round"/>
</svg>
