<svg width="32" height="32" viewBox="0 0 32 32" fill="none" xmlns="http://www.w3.org/2000/svg">
<path d="M17.3332 9.33333C17.3332 12.2789 14.9454 14.6667 11.9998 14.6667C9.05432 14.6667 6.6665 12.2789 6.6665 9.33333C6.6665 6.38781 9.05432 4 11.9998 4C14.9454 4 17.3332 6.38781 17.3332 9.33333Z" stroke="#051B18" stroke-width="1.5" stroke-linecap="round" stroke-linejoin="round"/>
<path d="M20 14.6667C22.9455 14.6667 25.3333 12.2789 25.3333 9.33333C25.3333 6.38781 22.9455 4 20 4" stroke="#051B18" stroke-width="1.5" stroke-linecap="round" stroke-linejoin="round"/>
<path d="M21.3332 25.3332C21.3332 21.6513 18.3484 18.6665 14.6665 18.6665H9.33317C5.65127 18.6665 2.6665 21.6513 2.6665 25.3332V27.9998H21.3332V25.3332Z" stroke="#051B18" stroke-width="1.5" stroke-linecap="round" stroke-linejoin="round"/>
<path d="M25.3332 27.9998H29.3332V25.3332C29.3332 21.6513 26.3484 18.6665 22.6665 18.6665" stroke="#051B18" stroke-width="1.5" stroke-linecap="round" stroke-linejoin="round"/>
</svg>
