<svg width="32" height="32" viewBox="0 0 32 32" fill="none" xmlns="http://www.w3.org/2000/svg">
<path d="M29.2795 14.6276C29.3511 15.7346 29.3511 16.8809 29.2795 17.9878C28.914 23.6443 24.4713 28.15 18.894 28.5207C16.9912 28.6472 15.0046 28.6469 13.1057 28.5207C12.4518 28.4772 11.739 28.3212 11.1252 28.0684C10.4422 27.7871 10.1006 27.6464 9.92709 27.6677C9.75353 27.6891 9.50171 27.8748 8.99807 28.2462C8.11008 28.901 6.99139 29.3713 5.3324 29.3309C4.49352 29.3105 4.07407 29.3003 3.88629 28.9801C3.69852 28.66 3.93238 28.2168 4.40012 27.3304C5.04883 26.1011 5.45985 24.6937 4.83705 23.5661C3.76441 21.9555 2.8533 20.048 2.72016 17.9878C2.64862 16.8809 2.64862 15.7346 2.72016 14.6276C3.08572 8.97117 7.52835 4.46551 13.1057 4.09477C14.709 3.98819 15.0414 3.97142 16.6665 4.0449" stroke="#051B18" stroke-width="1.5" stroke-linecap="round" stroke-linejoin="round"/>
<path d="M15.9939 16.6667H16.0058M21.3212 16.6667H21.3332M10.6665 16.6667H10.6785" stroke="#051B18" stroke-width="2" stroke-linecap="round" stroke-linejoin="round"/>
<path d="M29.3333 7.33341C29.3333 9.91074 27.244 12.0001 24.6667 12.0001C22.0893 12.0001 20 9.91074 20 7.33341C20 4.75609 22.0893 2.66675 24.6667 2.66675C27.244 2.66675 29.3333 4.75609 29.3333 7.33341Z" stroke="#051B18" stroke-width="1.5"/>
</svg>
