<svg width="32" height="32" viewBox="0 0 32 32" fill="none" xmlns="http://www.w3.org/2000/svg">
<path d="M10.6665 9.32594H16.0237M16.0237 9.32594H27.3332C28.4377 9.32594 29.3332 10.2214 29.3332 11.3259V26C29.3332 27.1046 28.4377 28 27.3332 28H4.6665C3.56193 28 2.6665 27.1046 2.6665 26V6C2.6665 4.89543 3.56193 4 4.6665 4H11.0042C11.6313 4 12.222 4.29407 12.6 4.79437L16.0237 9.32594Z" stroke="#051B18" stroke-width="1.5" stroke-linecap="round" stroke-linejoin="round"/>
<path d="M20.6668 15.9998L22.6668 17.9998L20.6668 19.9998M11.3335 15.9998L9.3335 17.9998L11.3335 19.9998M17.3335 14.6665L14.6668 21.3332" stroke="#051B18" stroke-width="1.5" stroke-linecap="round" stroke-linejoin="round"/>
</svg>
