<svg width="32" height="32" viewBox="0 0 32 32" fill="none" xmlns="http://www.w3.org/2000/svg">
<path d="M5.33325 11.3335C5.33325 10.2289 6.22869 9.3335 7.33326 9.3335L24.6642 9.3335C25.7697 9.3335 26.6655 10.2304 26.6642 11.3358L26.6533 20.6692C26.652 21.7728 25.757 22.6668 24.6533 22.6668L7.33325 22.6668C6.22868 22.6668 5.33325 21.7714 5.33325 20.6668L5.33325 11.3335Z" stroke="#051B18" stroke-width="1.5" stroke-linecap="round" stroke-linejoin="round"/>
<path d="M22.6666 29.3332L22.0703 28.1406C21.6186 27.2372 20.6952 26.6665 19.6852 26.6665H12.3147C11.3046 26.6665 10.3812 27.2372 9.92954 28.1406L9.33325 29.3332" stroke="#051B18" stroke-width="1.5" stroke-linecap="round" stroke-linejoin="round"/>
<path d="M22.6666 2.6665L22.0703 3.85907C21.6186 4.7625 20.6952 5.33317 19.6852 5.33317L12.3147 5.33317C11.3046 5.33317 10.3812 4.7625 9.92954 3.85907L9.33325 2.6665" stroke="#051B18" stroke-width="1.5" stroke-linecap="round" stroke-linejoin="round"/>
</svg>
