<svg width="32" height="32" viewBox="0 0 32 32" fill="none" xmlns="http://www.w3.org/2000/svg">
<path d="M2.6725 21.0784C2.9698 16.4203 3.84509 13.0117 4.5868 11.0317C4.96126 10.0321 5.76687 9.28768 6.79828 9.03822C12.5216 7.65393 19.4779 7.65393 25.2013 9.03822C26.2327 9.28768 27.0383 10.0321 27.4127 11.0317C28.1545 13.0117 29.0297 16.4203 29.327 21.0784C29.5033 23.8396 25.5891 25.5307 23.3334 26.6667L20.9545 22.5038C20.7764 22.1923 20.4451 22 20.0863 22L11.9136 22C11.5547 22 11.2234 22.1923 11.0453 22.5039L8.66657 26.6667C6.4109 25.5307 2.49627 23.8396 2.6725 21.0784Z" stroke="#051B18" stroke-width="1.5" stroke-linejoin="round"/>
<path d="M6.66675 6.00016L9.28388 5.3335M25.3334 6.00016L22.6667 5.3335" stroke="#051B18" stroke-width="1.5" stroke-linecap="round" stroke-linejoin="round"/>
<path d="M12 17.3335L10 15.3335M10 15.3335L8 13.3335M10 15.3335L8 17.3335M10 15.3335L12 13.3335" stroke="#051B18" stroke-width="1.5" stroke-linecap="round" stroke-linejoin="round"/>
<path d="M21.3176 13.3335H21.3296" stroke="#051B18" stroke-width="1.5" stroke-linecap="round" stroke-linejoin="round"/>
<path d="M23.9844 17.3335H23.9964" stroke="#051B18" stroke-width="1.5" stroke-linecap="round" stroke-linejoin="round"/>
</svg>
