<svg width="32" height="32" viewBox="0 0 32 32" fill="none" xmlns="http://www.w3.org/2000/svg">
<path d="M13.3335 17.6388C13.5223 17.9481 13.7464 18.2407 14.0057 18.5106C15.6157 20.1862 18.0697 20.4482 19.9436 19.2964C20.2908 19.083 20.6181 18.8211 20.9164 18.5106L25.2356 14.0154C27.1439 12.0293 27.1439 8.80918 25.2356 6.82307C23.3272 4.83697 20.2332 4.83697 18.3249 6.82307L17.3735 7.81321" stroke="#141B34" stroke-width="1.5" stroke-linecap="round" stroke-linejoin="round"/>
<path d="M14.6272 24.1866L13.6755 25.1771C11.7672 27.1632 8.67312 27.1632 6.76476 25.1771C4.85641 23.191 4.85641 19.9709 6.76476 17.9848L11.084 13.4896C12.9923 11.5035 16.0864 11.5035 17.9948 13.4896C18.254 13.7594 18.478 14.052 18.6668 14.3611" stroke="#141B34" stroke-width="1.5" stroke-linecap="round" stroke-linejoin="round"/>
</svg>
