<svg width="32" height="32" viewBox="0 0 32 32" fill="none" xmlns="http://www.w3.org/2000/svg">
<path d="M12 9.6665V3.6665C12 3.11422 11.5523 2.6665 11 2.6665L5 2.6665C4.44772 2.6665 4 3.11422 4 3.6665L4 9.6665C4 10.2188 4.44772 10.6665 5 10.6665H11C11.5523 10.6665 12 10.2188 12 9.6665Z" stroke="#051B18" stroke-width="1.5" stroke-linejoin="round"/>
<path d="M12 28.3335V22.3335C12 21.7812 11.5523 21.3335 11 21.3335H5C4.44772 21.3335 4 21.7812 4 22.3335L4 28.3335C4 28.8858 4.44772 29.3335 5 29.3335H11C11.5523 29.3335 12 28.8858 12 28.3335Z" stroke="#051B18" stroke-width="1.5" stroke-linejoin="round"/>
<path d="M28 9.6665V3.6665C28 3.11422 27.5523 2.6665 27 2.6665L21 2.6665C20.4477 2.6665 20 3.11422 20 3.6665V9.6665C20 10.2188 20.4477 10.6665 21 10.6665H27C27.5523 10.6665 28 10.2188 28 9.6665Z" stroke="#051B18" stroke-width="1.5" stroke-linejoin="round"/>
<path d="M8 10.6668L8 21.3335" stroke="#051B18" stroke-width="1.5" stroke-linejoin="round"/>
<path d="M8 15.9998L22 15.9998C23.1046 15.9998 24 15.1044 24 13.9998V10.6665" stroke="#051B18" stroke-width="1.5" stroke-linejoin="round"/>
</svg>
