<svg width="1144" height="440" viewBox="0 0 1144 440" fill="none" xmlns="http://www.w3.org/2000/svg">
<g clip-path="url(#clip0_170_2201)">
<path d="M-91.8738 -34.6966L-40.5367 -65.2544L10.1893 -34.6966M-91.8738 -34.6966L-40.5367 -5.3611M-91.8738 -34.6966V25.1967L-40.5367 53.921M10.1893 -34.6966L-40.5367 -5.3611M10.1893 -34.6966V25.1967L-40.5367 53.921M-40.5367 -5.3611V53.921" stroke="#CCCCCC" stroke-opacity="0.03" stroke-width="1.22231"/>
<path d="M10.1892 -34.6966L61.5263 -65.2544L112.252 -34.6966M10.1892 -34.6966L61.5263 -5.3611M10.1892 -34.6966V25.1967L61.5263 53.921M112.252 -34.6966L61.5263 -5.3611M112.252 -34.6966V25.1967L61.5263 53.921M61.5263 -5.3611V53.921" stroke="#CCCCCC" stroke-opacity="0.14" stroke-width="1.22231"/>
<path d="M112.252 -34.6966L163.589 -65.2544L214.315 -34.6966M112.252 -34.6966L163.589 -5.3611M112.252 -34.6966V25.1967L163.589 53.921M214.315 -34.6966L163.589 -5.3611M214.315 -34.6966V25.1967L163.589 53.921M163.589 -5.3611V53.921" stroke="#CCCCCC" stroke-opacity="0.03" stroke-width="1.22231"/>
<path d="M214.315 -34.6966L265.653 -65.2544L316.378 -34.6966M214.315 -34.6966L265.653 -5.3611M214.315 -34.6966V25.1967L265.653 53.921M316.378 -34.6966L265.653 -5.3611M316.378 -34.6966V25.1967L265.653 53.921M265.653 -5.3611V53.921" stroke="#CCCCCC" stroke-opacity="0.03" stroke-width="1.22231"/>
<path d="M316.378 -34.6966L367.716 -65.2544L418.441 -34.6966M316.378 -34.6966L367.716 -5.3611M316.378 -34.6966V25.1967L367.716 53.921M418.441 -34.6966L367.716 -5.3611M418.441 -34.6966V25.1967L367.716 53.921M367.716 -5.3611V53.921" stroke="#CCCCCC" stroke-opacity="0.03" stroke-width="1.22231"/>
<path d="M418.441 -34.6966L469.779 -65.2544L520.504 -34.6966M418.441 -34.6966L469.779 -5.3611M418.441 -34.6966V25.1967L469.779 53.921M520.504 -34.6966L469.779 -5.3611M520.504 -34.6966V25.1967L469.779 53.921M469.779 -5.3611V53.921" stroke="#CCCCCC" stroke-opacity="0.03" stroke-width="1.22231"/>
<path d="M520.504 -34.6966L571.842 -65.2544L622.567 -34.6966M520.504 -34.6966L571.842 -5.3611M520.504 -34.6966V25.1967L571.842 53.921M622.567 -34.6966L571.842 -5.3611M622.567 -34.6966V25.1967L571.842 53.921M571.842 -5.3611V53.921" stroke="#CCCCCC" stroke-opacity="0.03" stroke-width="1.22231"/>
<path d="M622.567 -34.6966L673.904 -65.2544L724.63 -34.6966M622.567 -34.6966L673.904 -5.3611M622.567 -34.6966V25.1967L673.904 53.921M724.63 -34.6966L673.904 -5.3611M724.63 -34.6966V25.1967L673.904 53.921M673.904 -5.3611V53.921" stroke="#CCCCCC" stroke-opacity="0.03" stroke-width="1.22231"/>
<path d="M724.63 -34.6966L775.967 -65.2544L826.693 -34.6966M724.63 -34.6966L775.967 -5.3611M724.63 -34.6966V25.1967L775.967 53.921M826.693 -34.6966L775.967 -5.3611M826.693 -34.6966V25.1967L775.967 53.921M775.967 -5.3611V53.921" stroke="#CCCCCC" stroke-opacity="0.03" stroke-width="1.22231"/>
<path d="M826.693 -34.6966L878.03 -65.2544L928.756 -34.6966M826.693 -34.6966L878.03 -5.3611M826.693 -34.6966V25.1967L878.03 53.921M928.756 -34.6966L878.03 -5.3611M928.756 -34.6966V25.1967L878.03 53.921M878.03 -5.3611V53.921" stroke="#CCCCCC" stroke-opacity="0.03" stroke-width="1.22231"/>
<path d="M928.757 -34.6966L980.094 -65.2544L1030.82 -34.6966M928.757 -34.6966L980.094 -5.3611M928.757 -34.6966V25.1967L980.094 53.921M1030.82 -34.6966L980.094 -5.3611M1030.82 -34.6966V25.1967L980.094 53.921M980.094 -5.3611V53.921" stroke="#CCCCCC" stroke-opacity="0.03" stroke-width="1.22231"/>
<path d="M1030.82 -34.6966L1082.16 -65.2544L1132.88 -34.6966M1030.82 -34.6966L1082.16 -5.3611M1030.82 -34.6966V25.1967L1082.16 53.921M1132.88 -34.6966L1082.16 -5.3611M1132.88 -34.6966V25.1967L1082.16 53.921M1082.16 -5.3611V53.921" stroke="#CCCCCC" stroke-opacity="0.03" stroke-width="1.22231"/>
<path d="M1132.88 -34.6966L1184.22 -65.2544L1234.95 -34.6966M1132.88 -34.6966L1184.22 -5.3611M1132.88 -34.6966V25.1967L1184.22 53.921M1234.95 -34.6966L1184.22 -5.3611M1234.95 -34.6966V25.1967L1184.22 53.921M1184.22 -5.3611V53.921" stroke="#CCCCCC" stroke-opacity="0.14" stroke-width="1.22231"/>
<path d="M-91.8738 146.051L-40.5367 115.494L10.1893 146.051M-91.8738 146.051L-40.5367 175.387M-91.8738 146.051V205.945L-40.5367 234.669M10.1893 146.051L-40.5367 175.387M10.1893 146.051V205.945L-40.5367 234.669M-40.5367 175.387V234.669" stroke="#CCCCCC" stroke-opacity="0.03" stroke-width="1.22231"/>
<path d="M10.1892 146.051L61.5263 115.494L112.252 146.051M10.1892 146.051L61.5263 175.387M10.1892 146.051V205.945L61.5263 234.669M112.252 146.051L61.5263 175.387M112.252 146.051V205.945L61.5263 234.669M61.5263 175.387V234.669" stroke="#CCCCCC" stroke-opacity="0.03" stroke-width="1.22231"/>
<path d="M112.252 146.051L163.589 115.494L214.315 146.051M112.252 146.051L163.589 175.387M112.252 146.051V205.945L163.589 234.669M214.315 146.051L163.589 175.387M214.315 146.051V205.945L163.589 234.669M163.589 175.387V234.669" stroke="#CCCCCC" stroke-opacity="0.03" stroke-width="1.22231"/>
<path d="M214.315 146.051L265.653 115.494L316.378 146.051M214.315 146.051L265.653 175.387M214.315 146.051V205.945L265.653 234.669M316.378 146.051L265.653 175.387M316.378 146.051V205.945L265.653 234.669M265.653 175.387V234.669" stroke="#CCCCCC" stroke-opacity="0.03" stroke-width="1.22231"/>
<path d="M316.378 146.051L367.716 115.494L418.441 146.051M316.378 146.051L367.716 175.387M316.378 146.051V205.945L367.716 234.669M418.441 146.051L367.716 175.387M418.441 146.051V205.945L367.716 234.669M367.716 175.387V234.669" stroke="#CCCCCC" stroke-opacity="0.03" stroke-width="1.22231"/>
<path d="M418.441 146.051L469.779 115.494L520.504 146.051M418.441 146.051L469.779 175.387M418.441 146.051V205.945L469.779 234.669M520.504 146.051L469.779 175.387M520.504 146.051V205.945L469.779 234.669M469.779 175.387V234.669" stroke="#CCCCCC" stroke-opacity="0.03" stroke-width="1.22231"/>
<path d="M520.504 146.051L571.842 115.494L622.567 146.051M520.504 146.051L571.842 175.387M520.504 146.051V205.945L571.842 234.669M622.567 146.051L571.842 175.387M622.567 146.051V205.945L571.842 234.669M571.842 175.387V234.669" stroke="#CCCCCC" stroke-opacity="0.03" stroke-width="1.22231"/>
<path d="M622.567 146.051L673.904 115.494L724.63 146.051M622.567 146.051L673.904 175.387M622.567 146.051V205.945L673.904 234.669M724.63 146.051L673.904 175.387M724.63 146.051V205.945L673.904 234.669M673.904 175.387V234.669" stroke="#CCCCCC" stroke-opacity="0.03" stroke-width="1.22231"/>
<path d="M724.63 146.051L775.967 115.494L826.693 146.051M724.63 146.051L775.967 175.387M724.63 146.051V205.945L775.967 234.669M826.693 146.051L775.967 175.387M826.693 146.051V205.945L775.967 234.669M775.967 175.387V234.669" stroke="#CCCCCC" stroke-opacity="0.03" stroke-width="1.22231"/>
<path d="M826.693 146.051L878.03 115.494L928.756 146.051M826.693 146.051L878.03 175.387M826.693 146.051V205.945L878.03 234.669M928.756 146.051L878.03 175.387M928.756 146.051V205.945L878.03 234.669M878.03 175.387V234.669" stroke="#CCCCCC" stroke-opacity="0.03" stroke-width="1.22231"/>
<path d="M928.757 146.051L980.094 115.494L1030.82 146.051M928.757 146.051L980.094 175.387M928.757 146.051V205.945L980.094 234.669M1030.82 146.051L980.094 175.387M1030.82 146.051V205.945L980.094 234.669M980.094 175.387V234.669" stroke="#CCCCCC" stroke-opacity="0.03" stroke-width="1.22231"/>
<path d="M1030.82 146.051L1082.16 115.494L1132.88 146.051M1030.82 146.051L1082.16 175.387M1030.82 146.051V205.945L1082.16 234.669M1132.88 146.051L1082.16 175.387M1132.88 146.051V205.945L1082.16 234.669M1082.16 175.387V234.669" stroke="#CCCCCC" stroke-opacity="0.03" stroke-width="1.22231"/>
<path d="M1132.88 146.051L1184.22 115.494L1234.95 146.051M1132.88 146.051L1184.22 175.387M1132.88 146.051V205.945L1184.22 234.669M1234.95 146.051L1184.22 175.387M1234.95 146.051V205.945L1184.22 234.669M1184.22 175.387V234.669" stroke="#CCCCCC" stroke-opacity="0.03" stroke-width="1.22231"/>
<path d="M-91.8738 326.799L-40.5367 296.241L10.1893 326.799M-91.8738 326.799L-40.5367 356.135M-91.8738 326.799V386.692L-40.5367 415.417M10.1893 326.799L-40.5367 356.135M10.1893 326.799V386.692L-40.5367 415.417M-40.5367 356.135V415.417" stroke="#CCCCCC" stroke-opacity="0.14" stroke-width="1.22231"/>
<path d="M10.1892 326.799L61.5263 296.241L112.252 326.799M10.1892 326.799L61.5263 356.135M10.1892 326.799V386.692L61.5263 415.417M112.252 326.799L61.5263 356.135M112.252 326.799V386.692L61.5263 415.417M61.5263 356.135V415.417" stroke="#CCCCCC" stroke-opacity="0.03" stroke-width="1.22231"/>
<path d="M112.252 326.799L163.589 296.241L214.315 326.799M112.252 326.799L163.589 356.135M112.252 326.799V386.692L163.589 415.417M214.315 326.799L163.589 356.135M214.315 326.799V386.692L163.589 415.417M163.589 356.135V415.417" stroke="#CCCCCC" stroke-opacity="0.03" stroke-width="1.22231"/>
<path d="M214.315 326.799L265.653 296.241L316.378 326.799M214.315 326.799L265.653 356.135M214.315 326.799V386.692L265.653 415.417M316.378 326.799L265.653 356.135M316.378 326.799V386.692L265.653 415.417M265.653 356.135V415.417" stroke="#CCCCCC" stroke-opacity="0.03" stroke-width="1.22231"/>
<path d="M316.378 326.799L367.716 296.241L418.441 326.799M316.378 326.799L367.716 356.135M316.378 326.799V386.692L367.716 415.417M418.441 326.799L367.716 356.135M418.441 326.799V386.692L367.716 415.417M367.716 356.135V415.417" stroke="#CCCCCC" stroke-opacity="0.03" stroke-width="1.22231"/>
<path d="M418.441 326.799L469.779 296.241L520.504 326.799M418.441 326.799L469.779 356.135M418.441 326.799V386.692L469.779 415.417M520.504 326.799L469.779 356.135M520.504 326.799V386.692L469.779 415.417M469.779 356.135V415.417" stroke="#CCCCCC" stroke-opacity="0.03" stroke-width="1.22231"/>
<path d="M520.504 326.799L571.842 296.241L622.567 326.799M520.504 326.799L571.842 356.135M520.504 326.799V386.692L571.842 415.417M622.567 326.799L571.842 356.135M622.567 326.799V386.692L571.842 415.417M571.842 356.135V415.417" stroke="#CCCCCC" stroke-opacity="0.03" stroke-width="1.22231"/>
<path d="M622.567 326.799L673.904 296.241L724.63 326.799M622.567 326.799L673.904 356.135M622.567 326.799V386.692L673.904 415.417M724.63 326.799L673.904 356.135M724.63 326.799V386.692L673.904 415.417M673.904 356.135V415.417" stroke="#CCCCCC" stroke-opacity="0.03" stroke-width="1.22231"/>
<path d="M724.63 326.799L775.967 296.241L826.693 326.799M724.63 326.799L775.967 356.135M724.63 326.799V386.692L775.967 415.417M826.693 326.799L775.967 356.135M826.693 326.799V386.692L775.967 415.417M775.967 356.135V415.417" stroke="#CCCCCC" stroke-opacity="0.03" stroke-width="1.22231"/>
<path d="M826.693 326.799L878.03 296.241L928.756 326.799M826.693 326.799L878.03 356.135M826.693 326.799V386.692L878.03 415.417M928.756 326.799L878.03 356.135M928.756 326.799V386.692L878.03 415.417M878.03 356.135V415.417" stroke="#CCCCCC" stroke-opacity="0.03" stroke-width="1.22231"/>
<path d="M928.757 326.799L980.094 296.241L1030.82 326.799M928.757 326.799L980.094 356.135M928.757 326.799V386.692L980.094 415.417M1030.82 326.799L980.094 356.135M1030.82 326.799V386.692L980.094 415.417M980.094 356.135V415.417" stroke="#CCCCCC" stroke-opacity="0.03" stroke-width="1.22231"/>
<path d="M1030.82 326.799L1082.16 296.241L1132.88 326.799M1030.82 326.799L1082.16 356.135M1030.82 326.799V386.692L1082.16 415.417M1132.88 326.799L1082.16 356.135M1132.88 326.799V386.692L1082.16 415.417M1082.16 356.135V415.417" stroke="#CCCCCC" stroke-opacity="0.03" stroke-width="1.22231"/>
<path d="M1132.88 326.799L1184.22 296.241L1234.95 326.799M1132.88 326.799L1184.22 356.135M1132.88 326.799V386.692L1184.22 415.417M1234.95 326.799L1184.22 356.135M1234.95 326.799V386.692L1184.22 415.417M1184.22 356.135V415.417" stroke="#CCCCCC" stroke-opacity="0.14" stroke-width="1.22231"/>
<path d="M-40.8425 55.5612L10.4946 25.0034L61.2205 55.5612M-40.8425 55.5612L10.4946 84.8967M-40.8425 55.5612V115.455L10.4946 144.179M61.2205 55.5612L10.4946 84.8967M61.2205 55.5612V115.455L10.4946 144.179M10.4946 84.8967V144.179" stroke="#CCCCCC" stroke-opacity="0.03" stroke-width="1.22231"/>
<path d="M61.2205 55.5612L112.558 25.0034L163.284 55.5612M61.2205 55.5612L112.558 84.8967M61.2205 55.5612V115.455L112.558 144.179M163.284 55.5612L112.558 84.8967M163.284 55.5612V115.455L112.558 144.179M112.558 84.8967V144.179" stroke="#CCCCCC" stroke-opacity="0.03" stroke-width="1.22231"/>
<path d="M163.283 55.5612L214.621 25.0034L265.347 55.5612M163.283 55.5612L214.621 84.8967M163.283 55.5612V115.455L214.621 144.179M265.347 55.5612L214.621 84.8967M265.347 55.5612V115.455L214.621 144.179M214.621 84.8967V144.179" stroke="#CCCCCC" stroke-opacity="0.03" stroke-width="1.22231"/>
<path d="M265.347 55.5612L316.684 25.0034L367.41 55.5612M265.347 55.5612L316.684 84.8967M265.347 55.5612V115.455L316.684 144.179M367.41 55.5612L316.684 84.8967M367.41 55.5612V115.455L316.684 144.179M316.684 84.8967V144.179" stroke="#CCCCCC" stroke-opacity="0.03" stroke-width="1.22231"/>
<path d="M367.41 55.5612L418.747 25.0034L469.473 55.5612M367.41 55.5612L418.747 84.8967M367.41 55.5612V115.455L418.747 144.179M469.473 55.5612L418.747 84.8967M469.473 55.5612V115.455L418.747 144.179M418.747 84.8967V144.179" stroke="#CCCCCC" stroke-opacity="0.03" stroke-width="1.22231"/>
<path d="M469.473 55.5612L520.81 25.0034L571.536 55.5612M469.473 55.5612L520.81 84.8967M469.473 55.5612V115.455L520.81 144.179M571.536 55.5612L520.81 84.8967M571.536 55.5612V115.455L520.81 144.179M520.81 84.8967V144.179" stroke="#CCCCCC" stroke-opacity="0.03" stroke-width="1.22231"/>
<path d="M571.536 55.5612L622.873 25.0034L673.599 55.5612M571.536 55.5612L622.873 84.8967M571.536 55.5612V115.455L622.873 144.179M673.599 55.5612L622.873 84.8967M673.599 55.5612V115.455L622.873 144.179M622.873 84.8967V144.179" stroke="#CCCCCC" stroke-opacity="0.14" stroke-width="1.22231"/>
<path d="M673.599 55.5612L724.936 25.0034L775.662 55.5612M673.599 55.5612L724.936 84.8967M673.599 55.5612V115.455L724.936 144.179M775.662 55.5612L724.936 84.8967M775.662 55.5612V115.455L724.936 144.179M724.936 84.8967V144.179" stroke="#CCCCCC" stroke-opacity="0.03" stroke-width="1.22231"/>
<path d="M775.662 55.5612L826.999 25.0034L877.725 55.5612M775.662 55.5612L826.999 84.8967M775.662 55.5612V115.455L826.999 144.179M877.725 55.5612L826.999 84.8967M877.725 55.5612V115.455L826.999 144.179M826.999 84.8967V144.179" stroke="#CCCCCC" stroke-opacity="0.03" stroke-width="1.22231"/>
<path d="M877.725 55.5612L929.062 25.0034L979.788 55.5612M877.725 55.5612L929.062 84.8967M877.725 55.5612V115.455L929.062 144.179M979.788 55.5612L929.062 84.8967M979.788 55.5612V115.455L929.062 144.179M929.062 84.8967V144.179" stroke="#CCCCCC" stroke-opacity="0.03" stroke-width="1.22231"/>
<path d="M979.788 55.5612L1031.13 25.0034L1081.85 55.5612M979.788 55.5612L1031.13 84.8967M979.788 55.5612V115.455L1031.13 144.179M1081.85 55.5612L1031.13 84.8967M1081.85 55.5612V115.455L1031.13 144.179M1031.13 84.8967V144.179" stroke="#CCCCCC" stroke-opacity="0.03" stroke-width="1.22231"/>
<path d="M1081.85 55.5612L1133.19 25.0034L1183.91 55.5612M1081.85 55.5612L1133.19 84.8967M1081.85 55.5612V115.455L1133.19 144.179M1183.91 55.5612L1133.19 84.8967M1183.91 55.5612V115.455L1133.19 144.179M1133.19 84.8967V144.179" stroke="#CCCCCC" stroke-opacity="0.14" stroke-width="1.22231"/>
<path d="M-40.8425 236.309L10.4946 205.751L61.2205 236.309M-40.8425 236.309L10.4946 265.644M-40.8425 236.309V296.202L10.4946 324.926M61.2205 236.309L10.4946 265.644M61.2205 236.309V296.202L10.4946 324.926M10.4946 265.644V324.926" stroke="#CCCCCC" stroke-opacity="0.03" stroke-width="1.22231"/>
<path d="M61.2205 236.309L112.558 205.751L163.284 236.309M61.2205 236.309L112.558 265.644M61.2205 236.309V296.202L112.558 324.926M163.284 236.309L112.558 265.644M163.284 236.309V296.202L112.558 324.926M112.558 265.644V324.926" stroke="#CCCCCC" stroke-opacity="0.03" stroke-width="1.22231"/>
<path d="M163.283 236.309L214.621 205.751L265.347 236.309M163.283 236.309L214.621 265.644M163.283 236.309V296.202L214.621 324.926M265.347 236.309L214.621 265.644M265.347 236.309V296.202L214.621 324.926M214.621 265.644V324.926" stroke="#CCCCCC" stroke-opacity="0.03" stroke-width="1.22231"/>
<path d="M265.347 236.309L316.684 205.751L367.41 236.309M265.347 236.309L316.684 265.644M265.347 236.309V296.202L316.684 324.926M367.41 236.309L316.684 265.644M367.41 236.309V296.202L316.684 324.926M316.684 265.644V324.926" stroke="#CCCCCC" stroke-opacity="0.03" stroke-width="1.22231"/>
<path d="M367.41 236.309L418.747 205.751L469.473 236.309M367.41 236.309L418.747 265.644M367.41 236.309V296.202L418.747 324.926M469.473 236.309L418.747 265.644M469.473 236.309V296.202L418.747 324.926M418.747 265.644V324.926" stroke="#CCCCCC" stroke-opacity="0.03" stroke-width="1.22231"/>
<path d="M469.473 236.309L520.81 205.751L571.536 236.309M469.473 236.309L520.81 265.644M469.473 236.309V296.202L520.81 324.926M571.536 236.309L520.81 265.644M571.536 236.309V296.202L520.81 324.926M520.81 265.644V324.926" stroke="#CCCCCC" stroke-opacity="0.03" stroke-width="1.22231"/>
<path d="M571.536 236.309L622.873 205.751L673.599 236.309M571.536 236.309L622.873 265.644M571.536 236.309V296.202L622.873 324.926M673.599 236.309L622.873 265.644M673.599 236.309V296.202L622.873 324.926M622.873 265.644V324.926" stroke="#CCCCCC" stroke-opacity="0.14" stroke-width="1.22231"/>
<path d="M673.599 236.309L724.936 205.751L775.662 236.309M673.599 236.309L724.936 265.644M673.599 236.309V296.202L724.936 324.926M775.662 236.309L724.936 265.644M775.662 236.309V296.202L724.936 324.926M724.936 265.644V324.926" stroke="#CCCCCC" stroke-opacity="0.03" stroke-width="1.22231"/>
<path d="M775.662 236.309L826.999 205.751L877.725 236.309M775.662 236.309L826.999 265.644M775.662 236.309V296.202L826.999 324.926M877.725 236.309L826.999 265.644M877.725 236.309V296.202L826.999 324.926M826.999 265.644V324.926" stroke="#CCCCCC" stroke-opacity="0.03" stroke-width="1.22231"/>
<path d="M877.725 236.309L929.062 205.751L979.788 236.309M877.725 236.309L929.062 265.644M877.725 236.309V296.202L929.062 324.926M979.788 236.309L929.062 265.644M979.788 236.309V296.202L929.062 324.926M929.062 265.644V324.926" stroke="#CCCCCC" stroke-opacity="0.03" stroke-width="1.22231"/>
<path d="M979.788 236.309L1031.13 205.751L1081.85 236.309M979.788 236.309L1031.13 265.644M979.788 236.309V296.202L1031.13 324.926M1081.85 236.309L1031.13 265.644M1081.85 236.309V296.202L1031.13 324.926M1031.13 265.644V324.926" stroke="#CCCCCC" stroke-opacity="0.14" stroke-width="1.22231"/>
<path d="M1081.85 236.309L1133.19 205.751L1183.91 236.309M1081.85 236.309L1133.19 265.644M1081.85 236.309V296.202L1133.19 324.926M1183.91 236.309L1133.19 265.644M1183.91 236.309V296.202L1133.19 324.926M1133.19 265.644V324.926" stroke="#CCCCCC" stroke-opacity="0.03" stroke-width="1.22231"/>
<path d="M-40.8425 417.057L10.4946 386.499L61.2205 417.057M-40.8425 417.057L10.4946 446.392M-40.8425 417.057V476.95L10.4946 505.674M61.2205 417.057L10.4946 446.392M61.2205 417.057V476.95L10.4946 505.674M10.4946 446.392V505.674" stroke="#CCCCCC" stroke-opacity="0.03" stroke-width="1.22231"/>
<path d="M61.2205 417.057L112.558 386.499L163.284 417.057M61.2205 417.057L112.558 446.392M61.2205 417.057V476.95L112.558 505.674M163.284 417.057L112.558 446.392M163.284 417.057V476.95L112.558 505.674M112.558 446.392V505.674" stroke="#CCCCCC" stroke-opacity="0.03" stroke-width="1.22231"/>
<path d="M163.283 417.057L214.621 386.499L265.347 417.057M163.283 417.057L214.621 446.392M163.283 417.057V476.95L214.621 505.674M265.347 417.057L214.621 446.392M265.347 417.057V476.95L214.621 505.674M214.621 446.392V505.674" stroke="#CCCCCC" stroke-opacity="0.03" stroke-width="1.22231"/>
<path d="M265.347 417.057L316.684 386.499L367.41 417.057M265.347 417.057L316.684 446.392M265.347 417.057V476.95L316.684 505.674M367.41 417.057L316.684 446.392M367.41 417.057V476.95L316.684 505.674M316.684 446.392V505.674" stroke="#CCCCCC" stroke-opacity="0.14" stroke-width="1.22231"/>
<path d="M367.41 417.057L418.747 386.499L469.473 417.057M367.41 417.057L418.747 446.392M367.41 417.057V476.95L418.747 505.674M469.473 417.057L418.747 446.392M469.473 417.057V476.95L418.747 505.674M418.747 446.392V505.674" stroke="#CCCCCC" stroke-opacity="0.03" stroke-width="1.22231"/>
<path d="M469.473 417.057L520.81 386.499L571.536 417.057M469.473 417.057L520.81 446.392M469.473 417.057V476.95L520.81 505.674M571.536 417.057L520.81 446.392M571.536 417.057V476.95L520.81 505.674M520.81 446.392V505.674" stroke="#CCCCCC" stroke-opacity="0.03" stroke-width="1.22231"/>
<path d="M571.536 417.057L622.873 386.499L673.599 417.057M571.536 417.057L622.873 446.392M571.536 417.057V476.95L622.873 505.674M673.599 417.057L622.873 446.392M673.599 417.057V476.95L622.873 505.674M622.873 446.392V505.674" stroke="#CCCCCC" stroke-opacity="0.03" stroke-width="1.22231"/>
<path d="M673.599 417.057L724.936 386.499L775.662 417.057M673.599 417.057L724.936 446.392M673.599 417.057V476.95L724.936 505.674M775.662 417.057L724.936 446.392M775.662 417.057V476.95L724.936 505.674M724.936 446.392V505.674" stroke="#CCCCCC" stroke-opacity="0.03" stroke-width="1.22231"/>
<path d="M775.662 417.057L826.999 386.499L877.725 417.057M775.662 417.057L826.999 446.392M775.662 417.057V476.95L826.999 505.674M877.725 417.057L826.999 446.392M877.725 417.057V476.95L826.999 505.674M826.999 446.392V505.674" stroke="#CCCCCC" stroke-opacity="0.03" stroke-width="1.22231"/>
<path d="M877.725 417.057L929.062 386.499L979.788 417.057M877.725 417.057L929.062 446.392M877.725 417.057V476.95L929.062 505.674M979.788 417.057L929.062 446.392M979.788 417.057V476.95L929.062 505.674M929.062 446.392V505.674" stroke="#CCCCCC" stroke-opacity="0.03" stroke-width="1.22231"/>
<path d="M979.788 417.057L1031.13 386.499L1081.85 417.057M979.788 417.057L1031.13 446.392M979.788 417.057V476.95L1031.13 505.674M1081.85 417.057L1031.13 446.392M1081.85 417.057V476.95L1031.13 505.674M1031.13 446.392V505.674" stroke="#CCCCCC" stroke-opacity="0.03" stroke-width="1.22231"/>
<path d="M1081.85 417.057L1133.19 386.499L1183.91 417.057M1081.85 417.057L1133.19 446.392M1081.85 417.057V476.95L1133.19 505.674M1183.91 417.057L1133.19 446.392M1183.91 417.057V476.95L1133.19 505.674M1133.19 446.392V505.674" stroke="#CCCCCC" stroke-opacity="0.03" stroke-width="1.22231"/>
</g>
<defs>
<clipPath id="clip0_170_2201">
<rect width="1440" height="932" fill="white" transform="translate(-148 -246)"/>
</clipPath>
</defs>
</svg>
